<?xml version="1.0" encoding="UTF-8" standalone="no"?>
<svg
   width="150.53215"
   height="55.752651"
   viewBox="0 0 150.53215 55.752651"
   version="1.1"
   id="svg1"
   sodipodi:docname="odnf-mobile-logo.svg"
   inkscape:version="1.4.3 (0d15f75, 2025-12-25)"
   xmlns:inkscape="http://www.inkscape.org/namespaces/inkscape"
   xmlns:sodipodi="http://sodipodi.sourceforge.net/DTD/sodipodi-0.dtd"
   xmlns="http://www.w3.org/2000/svg"
   xmlns:svg="http://www.w3.org/2000/svg"
   xmlns:rdf="http://www.w3.org/1999/02/22-rdf-syntax-ns#"
   xmlns:cc="http://creativecommons.org/ns#"
   xmlns:dc="http://purl.org/dc/elements/1.1/">
  <defs
     id="defs1" />
  <sodipodi:namedview
     id="namedview1"
     pagecolor="#ffffff"
     bordercolor="#000000"
     borderopacity="0.25"
     inkscape:showpageshadow="2"
     inkscape:pageopacity="0.0"
     inkscape:pagecheckerboard="0"
     inkscape:deskcolor="#d1d1d1"
     inkscape:zoom="3.5872734"
     inkscape:cx="73.872261"
     inkscape:cy="24.391784"
     inkscape:window-width="1880"
     inkscape:window-height="992"
     inkscape:window-x="1748"
     inkscape:window-y="77"
     inkscape:window-maximized="0"
     inkscape:current-layer="Page-1"
     showguides="true" />
  <title
     id="title1">fullname-logo</title>
  <g
     id="Page-1"
     stroke="none"
     stroke-width="1"
     fill="none"
     fill-rule="evenodd"
     transform="translate(-17.562084,-11.98682)">
    <g
       id="ODNF-Home"
       transform="translate(-14.880056,-5.9336042)">
      <g
         id="g4"
         inkscape:label="FLEX"
         transform="translate(-8.169708,0.68637093)">
        <path
           d="m 179.10356,62.15788 h 0.31143 v 0.224882 h -8.9925 V 62.15788 h 0.28912 c 0.31143,0 0.5643,-0.157483 0.75674,-0.472355 0.0892,-0.149953 0.13387,-0.299905 0.13387,-0.449858 0,-0.149952 -0.0446,-0.307435 -0.13387,-0.472355 l -2.89307,-4.476078 -4.34054,6.095528 c -1.85837,2.595304 -3.69071,3.139335 -3.69071,3.139335 l 0.57174,-1.197854 -0.35327,-0.31041 c 0,0 0.12178,-0.112767 0.36721,-0.405141 0.2445,-0.292468 0.55965,-0.701049 0.94545,-1.22593 l 5.52027,-7.624988 -4.25129,-6.590381 c -0.25194,-0.359868 -0.57918,-0.667303 -0.97985,-0.922213 -0.40068,-0.25491 -0.82367,-0.382365 -1.26805,-0.382365 h -0.31236 V 46.63784 h 8.94881 v 0.224975 h -0.26774 c -0.32631,0 -0.57824,0.157483 -0.75673,0.472355 -0.1032,0.149953 -0.15526,0.303624 -0.15526,0.461106 0,0.15739 0.0521,0.311154 0.15526,0.461107 l 2.51563,3.891235 3.60611,-5.510778 c 0.69724,-1.049668 1.55809,-1.94929 2.58164,-2.699053 0.97985,-0.719828 2.04058,-1.079695 3.18312,-1.079695 0.19337,0 0.37837,0.01497 0.55686,0.045 v 0.224882 c -0.86086,0.01506 -1.66221,0.42736 -2.40407,1.237178 -0.5643,0.614778 -1.14998,1.371977 -1.7589,2.271693 l -4.71891,7.130228 4.58597,7.085234 c 0.34118,0.50982 0.79392,0.884748 1.35729,1.124598 0.29655,0.120017 0.59404,0.17998 0.8906,0.17998 z"
           id="Fill-1"
           fill="#11111b" />
        <path
           d="m 160.53752,65.521074 0.57825,-1.194693 -1.05795,-0.925838 c 0,0 0.14596,-0.134242 0.35885,-0.388687 0.2352,-0.28094 0.53734,-0.673531 0.90827,-1.177308 l 5.14468,-7.106988 -3.90081,-6.046722 c -0.18221,-0.254073 -0.41834,-0.469938 -0.70282,-0.651313 -0.24357,-0.154972 -0.49922,-0.23706 -0.76975,-0.23706 h -0.31236 -0.92965 v -1.148304 l 0.92965,-0.0063 v 0.224975 h 0.31236 c 0.44438,0 0.86737,0.127455 1.26805,0.382365 0.40067,0.25491 0.72791,0.562345 0.97985,0.922213 l 4.25129,6.590381 -5.52027,7.624988 c -0.3858,0.524881 -0.70095,0.933462 -0.94545,1.22593 -0.24543,0.292374 -0.37186,0.404862 -0.37186,0.404862 l 0.35792,0.312827 -0.57825,1.194693 c 0,0 1.8435,-0.522277 3.69722,-3.138312 l 4.34054,-6.095528 2.89307,4.476078 c 0.0892,0.16492 0.13387,0.322403 0.13387,0.472355 0,0.149953 -0.0446,0.299905 -0.13387,0.449858 -0.19244,0.314872 -0.44531,0.472355 -0.75674,0.472355 h -0.28912 l -0.92965,0.0063 v -0.935879 l 1.16392,-9.3e-5 0.003,-0.0039 -2.12146,-3.282128 -3.54661,4.980599 -9.3e-4,7.44e-4 c -0.49272,0.68887 -1.31825,1.644271 -2.01827,2.211637 -1.69569,1.375231 -3.1887,1.563764 -3.1887,1.563764 z m 0.24636,-18.883234 -0.92965,0.0063 9.3e-4,-0.935971 h 9.87753 0.92872 l 9.3e-4,2.084275 h -0.92965 l -0.21475,1.86e-4 -0.002,0.0021 1.71242,2.648666 2.8252,-4.317388 0.002,-0.0027 c 0.75767,-1.140866 1.69289,-2.118951 2.80569,-2.933975 1.14811,-0.843657 2.39384,-1.259954 3.73347,-1.259954 0.19244,0 0.3793,0.0119 0.55965,0.03542 l 0.925,0.144189 0.007,1.925119 -0.9343,0.02464 c -0.62101,0.01627 -1.18251,0.350199 -1.71892,0.9356 -0.53641,0.584656 -1.09327,1.305507 -1.67151,2.160692 l -4.38051,6.618642 4.25314,6.570673 c 0.23614,0.349827 0.54757,0.608084 0.94267,0.777652 0.1757,0.06926 0.35141,0.106166 0.52711,0.106166 h 0.31143 l 0.92965,4.65e-4 v 1.148954 0.934763 h -9.92215 -0.92965 v -0.934763 -0.213447 l 0.92965,-0.0063 v 0.224882 h 8.9925 V 62.15788 h -0.31143 c -0.29656,0 -0.59405,-0.05996 -0.8906,-0.17998 -0.56337,-0.23985 -1.01611,-0.614778 -1.35729,-1.124598 l -4.58597,-7.085234 4.71891,-7.130228 c 0.60892,-0.899716 1.1946,-1.656915 1.7589,-2.271693 0.74186,-0.809818 1.54321,-1.222118 2.40407,-1.237178 v -0.224882 c -0.17849,-0.03003 -0.36349,-0.045 -0.55686,-0.045 -1.14254,0 -2.20327,0.359867 -3.18312,1.079695 -1.02355,0.749763 -1.8844,1.649385 -2.58164,2.699053 l -3.60611,5.510778 -2.51563,-3.891235 c -0.1032,-0.149953 -0.15526,-0.303717 -0.15526,-0.461107 0,-0.157482 0.0521,-0.311153 0.15526,-0.461106 0.17849,-0.314872 0.43042,-0.472355 0.75673,-0.472355 h 0.26774 v -0.22497 z m 20.37049,-4.672979 -0.003,-0.0035 0.15432,0.02603 c -0.0502,-0.0085 -0.1004,-0.0159 -0.15153,-0.0225 z m -23.81949,24.704424 c 0.0586,0.01134 0.17756,0.03449 0.17756,0.03449 z"
           id="Fill-2"
           fill="#cba6f7" />
        <path
           d="m 146.47192,62.15788 c 0.3858,0 0.71583,-0.138704 0.99008,-0.416111 0.27517,-0.277408 0.41927,-0.611059 0.43414,-1.000954 V 48.27988 c -0.0149,-0.479885 -0.21475,-0.86225 -0.60055,-1.147188 -0.23799,-0.179887 -0.51224,-0.269877 -0.82367,-0.269877 h -0.29005 V 46.63784 h 7.41303 c 0.63774,0 1.20575,-0.05243 1.70219,-0.15739 0.49736,-0.104958 0.81251,-0.187417 0.94638,-0.247473 v 4.633561 h -0.22312 v -0.17998 c 0,-0.884655 -0.24449,-1.581985 -0.73442,-2.091805 -0.489,-0.50982 -1.17229,-0.779791 -2.04709,-0.809725 h -0.77904 v 6.275415 h 3.09387 c 0.71211,-0.01497 1.29035,-0.251098 1.73566,-0.708486 0.4453,-0.457388 0.66841,-1.045949 0.66841,-1.765684 v -0.08999 h 0.22219 v 6.253011 h -0.22219 v -0.112488 c 0,-0.704767 -0.22311,-1.285798 -0.66841,-1.743186 -0.44531,-0.457295 -1.01611,-0.693519 -1.71335,-0.708486 h -3.11618 v 6.050533 h 4.07279 c 1.08304,0 2.04058,-0.359867 2.87169,-1.079602 0.83111,-0.719828 1.41679,-1.716971 1.75797,-2.991614 h 0.22311 l -0.84598,5.218311 H 146.18187 V 62.15788 Z"
           id="Fill-3"
           fill="#11111b" />
        <path
           d="m 146.18187,62.15788 -0.92965,0.0063 v -0.935879 l 1.2197,-9.3e-5 c 0.12829,0 0.23799,-0.04788 0.3291,-0.140377 0.10133,-0.102262 0.15711,-0.224603 0.16547,-0.368513 V 48.291501 c -0.0102,-0.171056 -0.0846,-0.308086 -0.22776,-0.414345 l -0.005,-0.0035 c -0.0753,-0.05699 -0.16362,-0.08116 -0.26216,-0.08116 h -0.29005 -0.92872 l -9.3e-4,-0.934763 v -0.213541 l 0.92965,-0.0063 v 0.224975 h 0.29005 c 0.31143,0 0.58568,0.08999 0.82367,0.269877 0.3858,0.284938 0.58568,0.667303 0.60055,1.147188 v 12.460935 c -0.0149,0.389895 -0.15897,0.723546 -0.43414,1.000954 -0.27425,0.277407 -0.60428,0.416111 -0.99008,0.416111 z m 0,-15.52004 -0.92965,0.0063 9.3e-4,-0.935971 h 8.34175 c 0.56615,0 1.06909,-0.04425 1.51068,-0.13731 0.39603,-0.08376 0.65075,-0.138053 0.75673,-0.18593 l 1.31081,-0.588561 v 5.770337 l 1.93646,-9.3e-5 -0.92965,0.929743 -0.22312,7.44e-4 c 0,0 -0.002,0.249239 -0.0102,0.358473 -0.008,0.100309 -0.04,0.296837 -0.04,0.296837 -0.0892,0.468636 -0.2947,0.868479 -0.61728,1.199527 -0.44531,0.457388 -1.02355,0.693519 -1.73566,0.708486 h -3.09387 v -6.275415 h 0.77904 c 0.8748,0.02993 1.55809,0.299905 2.04709,0.809725 0.48993,0.50982 0.73442,1.20715 0.73442,2.091805 v 0.17998 h 0.22312 v -4.633561 c -0.13387,0.06006 -0.44902,0.142515 -0.94638,0.247473 -0.49644,0.104957 -1.06445,0.15739 -1.70219,0.15739 z m 11.99806,5.655711 v -0.797175 c 0,0.04527 0.93151,-0.974273 0.92965,-0.929743 v 0.92965 7.182661 h -1.8593 l -0.22219,-2.79e-4 v -0.931974 -0.109885 c 0,-0.440561 -0.12643,-0.808795 -0.40439,-1.094755 -0.27425,-0.281777 -0.63124,-0.416483 -1.0598,-0.427267 h -2.17446 v 4.191233 h 3.14315 c 0.85435,0 1.6083,-0.285309 2.26277,-0.852675 0.70096,-0.606689 1.18158,-1.454995 1.46885,-2.529298 l 0.18593,-0.689242 h 0.92872 l 0.006,0.930393 -0.22311,-7.44e-4 c -0.34118,1.274643 -0.92686,2.271786 -1.75797,2.991614 -0.83111,0.719735 -1.78865,1.079602 -2.87169,1.079602 h -4.07279 v -6.050533 h 3.11618 c 0.69724,0.01497 1.26804,0.251191 1.71335,0.708486 0.4453,0.457388 0.66841,1.038419 0.66841,1.743186 v 0.112488 h 0.22219 z m 3.20543,4.871644 -0.006,-0.930393 1.09884,-0.0034 -0.17477,1.081833 -0.97242,5.999217 h -15.14864 -0.74372 l -0.18686,-0.05466 9.3e-4,-0.8801 v -0.213447 l 0.92965,-0.0063 v 0.224882 h 14.35751 z m -6.29465,-6.302747 v -0.17589 c 0,-0.608084 -0.13852,-1.097359 -0.47506,-1.447837 -0.29934,-0.31199 -0.71397,-0.469659 -1.22621,-0.513724 v 4.405796 l 2.16237,-1.85e-4 c 0.43601,-0.01246 0.79764,-0.145398 1.07189,-0.427082 0.2352,-0.242174 0.3607,-0.547006 0.39417,-0.907338 l -1.92624,0.0011 z"
           id="Fill-4"
           fill="#cba6f7" />
        <path
           d="m 155.95435,65.374376 c 1.85465,0 3.1385,-0.322403 3.85061,-0.967208 l 0.17756,0.15739 c -0.65261,1.424595 -1.58784,2.4817 -2.80382,3.1715 -0.75767,0.419923 -1.87046,0.629838 -3.3393,0.629838 -0.14875,0 -0.4044,-0.0075 -0.7679,-0.0225 -0.36349,-0.01497 -0.9501,-0.138704 -1.75889,-0.371117 -0.80787,-0.232412 -1.48744,-0.44242 -2.03594,-0.629838 -0.54942,-0.187417 -1.23922,-0.476073 -2.07033,-0.865968 -1.03842,-0.494853 -2.03314,-0.993424 -2.98324,-1.495714 -0.94918,-0.502383 -1.64269,-0.865969 -2.08056,-1.090944 -0.43786,-0.224883 -0.89432,-0.438609 -1.36937,-0.641087 -0.47506,-0.202385 -1.12767,-0.397332 -1.95878,-0.58475 -0.8311,-0.187417 -1.67708,-0.281219 -2.53701,-0.281219 V 62.15788 h 0.28912 c 0.53455,0 0.94267,-0.232412 1.22435,-0.697238 0.11899,-0.210007 0.185,-0.449857 0.19987,-0.719827 V 48.27988 c -0.0149,-0.554815 -0.25937,-0.967208 -0.73442,-1.237178 -0.20731,-0.119925 -0.43786,-0.179887 -0.6898,-0.179887 h -0.28912 V 46.63784 h 7.99034 v 0.224975 h -0.19987 c -0.43043,0 -0.78649,0.134985 -1.06817,0.404862 -0.28262,0.269878 -0.43043,0.607341 -0.4453,1.012203 v 13.090772 c 0,0.704768 0.28168,1.147095 0.84598,1.327076 5.74244,1.78437 9.9268,2.676648 12.55399,2.676648 z"
           id="Fill-5"
           fill="#11111b" />
        <path
           d="m 136.27738,62.15788 -0.92965,0.0063 v -0.93595 h 1.21877 c 0.18314,0 0.32166,-0.08107 0.42392,-0.241988 0.0418,-0.08079 0.0632,-0.17245 0.0707,-0.274711 V 48.286295 c -0.0102,-0.193367 -0.0958,-0.339787 -0.26681,-0.436936 l -0.003,-0.0016 c -0.0679,-0.03895 -0.14317,-0.05531 -0.22498,-0.05531 h -0.28912 l -0.92965,1.86e-4 v -0.934949 -0.213541 l 0.92965,-0.0063 v 0.224975 h 0.28912 c 0.25194,0 0.48249,0.05996 0.6898,0.179887 0.47505,0.26997 0.71955,0.682363 0.73442,1.237178 V 60.74082 c -0.0149,0.26997 -0.0809,0.50982 -0.19987,0.719827 -0.28168,0.464826 -0.6898,0.697238 -1.22435,0.697238 z m 0,-15.52004 -0.92965,0.0063 v -0.93595 h 8.91999 l 0.92965,0.0016 v 1.147932 l 0.002,0.935135 -1.13138,-3.72e-4 v -0.200991 -4.64e-4 0.201455 c -0.17013,0 -0.31423,0.04044 -0.42578,0.146791 -0.10041,0.09631 -0.15061,0.218003 -0.15804,0.36117 v 13.070226 c 0,0.216237 0.0251,0.385154 0.19708,0.440933 5.61509,1.744581 9.70462,2.633141 12.27324,2.633141 1.54508,0 2.63277,-0.189649 3.22681,-0.726801 l 0.61636,-0.558161 1.31825,1.165223 -0.2882,0.626956 c -0.74093,1.61694 -1.81002,2.80996 -3.19427,3.594956 l -0.004,0.0021 c -0.86086,0.477282 -2.1196,0.746509 -3.79018,0.746509 -0.15619,0 -0.42485,-0.0075 -0.80601,-0.02333 -0.40812,-0.01683 -1.0691,-0.14549 -1.97737,-0.406443 -0.82553,-0.237433 -1.51904,-0.452089 -2.07962,-0.643504 -0.57453,-0.19597 -1.29594,-0.496526 -2.16795,-0.905293 l -0.002,-0.0012 c -1.05143,-0.500617 -2.05731,-1.005045 -3.01764,-1.513285 -0.94545,-0.499965 -1.63618,-0.861878 -2.07126,-1.085738 -0.41834,-0.215028 -0.85528,-0.419272 -1.30895,-0.612825 -0.436,-0.185744 -1.03563,-0.361076 -1.79887,-0.533061 -0.76417,-0.172357 -1.54136,-0.258443 -2.33249,-0.258443 l -0.92965,-8.37e-4 v -0.933926 -0.213447 l 0.92965,-0.0063 v 0.224882 c 0.85993,0 1.70591,0.0938 2.53701,0.281219 0.83111,0.187418 1.48372,0.382365 1.95878,0.58475 0.47505,0.202478 0.93151,0.416204 1.36937,0.641087 0.43787,0.224975 1.13138,0.588561 2.08056,1.090944 0.9501,0.50229 1.94482,1.000861 2.98324,1.495714 0.83111,0.389895 1.52091,0.678551 2.07033,0.865968 0.5485,0.187418 1.22807,0.397426 2.03594,0.629838 0.80879,0.232413 1.3954,0.356149 1.75889,0.371117 0.3635,0.01497 0.61915,0.0225 0.7679,0.0225 1.46884,0 2.58163,-0.209915 3.3393,-0.629838 1.21598,-0.6898 2.15121,-1.746905 2.80382,-3.1715 l -0.17756,-0.15739 c -0.71211,0.644805 -1.99596,0.967208 -3.85061,0.967208 -2.62719,0 -6.81155,-0.892278 -12.55399,-2.676648 -0.5643,-0.179981 -0.84598,-0.622308 -0.84598,-1.327076 V 48.27988 c 0.0149,-0.404862 0.16268,-0.742325 0.4453,-1.012203 0.28168,-0.269877 0.63774,-0.404862 1.06817,-0.404862 h 0.19987 V 46.63784 Z"
           id="Fill-6"
           fill="#cba6f7" />
        <path
           d="m 126.77264,55.185134 v 5.555681 c 0,0.389895 0.14038,0.723546 0.42299,1.000954 0.28168,0.277407 0.61543,0.416111 1.00123,0.416111 h 0.28912 v 0.224882 h -7.99034 V 62.15788 h 0.28912 c 0.38581,0 0.71583,-0.138704 0.99008,-0.416111 0.27518,-0.277408 0.41927,-0.611059 0.43415,-1.000954 V 48.27988 c -0.0149,-0.404862 -0.15897,-0.742325 -0.43415,-1.012203 -0.27425,-0.269877 -0.60427,-0.404862 -0.99008,-0.404862 h -0.28912 V 46.63784 h 9.8608 c 0.46018,0 0.96033,-0.0449 1.50231,-0.134893 0.54106,-0.08999 0.92408,-0.17998 1.14626,-0.26997 v 4.633561 h -0.22218 v -0.17998 c 0,-0.884655 -0.24543,-1.581985 -0.73536,-2.091805 -0.48899,-0.50982 -1.17229,-0.779791 -2.04709,-0.809725 h -3.22774 v 6.275415 h 5.98787 c 0.71212,-0.01497 1.29036,-0.251098 1.73566,-0.708486 0.4453,-0.457388 0.66749,-1.045949 0.66749,-1.765684 v -0.08999 h 0.22311 v 6.253011 h -0.22311 v -0.112488 c 0,-0.704767 -0.22219,-1.285798 -0.66749,-1.743186 -0.4453,-0.457295 -1.01611,-0.693519 -1.71334,-0.708486 z"
           id="Fill-7"
           fill="#11111b" />
        <path
           d="m 120.49564,62.15788 -0.92965,0.0063 v -0.93595 h 1.21877 c 0.1283,0 0.23799,-0.04788 0.33003,-0.140377 0.10133,-0.102262 0.15618,-0.224603 0.16455,-0.368606 V 48.2968 c -0.008,-0.14484 -0.0567,-0.268576 -0.15618,-0.366189 -0.0939,-0.09231 -0.20639,-0.138146 -0.3384,-0.138146 h -0.28912 l -0.92965,-5.58e-4 v -1.147746 l 0.92965,-0.0063 v 0.224975 h 0.28912 c 0.38581,0 0.71583,0.134985 0.99008,0.404862 0.27518,0.269878 0.41927,0.607341 0.43415,1.012203 v 12.460935 c -0.0149,0.389895 -0.15897,0.723546 -0.43415,1.000954 -0.27425,0.277407 -0.60427,0.416111 -0.99008,0.416111 z m 0,-15.52004 -0.92965,0.0063 v -0.935785 l 10.79045,-1.86e-4 c 0.41276,0 0.86271,-0.04146 1.34985,-0.122342 0.44809,-0.07446 0.76603,-0.140284 0.9501,-0.214749 l 1.27827,-0.516607 v 6.941696 h -1.8593 -0.22218 v -0.93374 -0.17589 c 0,-0.608084 -0.13945,-1.097359 -0.47599,-1.447837 -0.33188,-0.345365 -0.80321,-0.501639 -1.39447,-0.524044 h -2.28043 v 4.416116 l 5.05636,-1.85e-4 c 0.43601,-0.01246 0.79764,-0.145398 1.07189,-0.427082 0.27983,-0.287819 0.40347,-0.664235 0.40347,-1.117253 v -1.027077 l 0.93523,0.0074 -0.006,0.929743 c 0,0 -9.3e-4,0.243475 -0.009,0.352523 -0.009,0.109327 -0.0409,0.303531 -0.0409,0.303531 -0.0892,0.468636 -0.2947,0.868479 -0.61729,1.199527 -0.4453,0.457388 -1.02354,0.693519 -1.73566,0.708486 h -5.98787 V 47.78497 h 3.22774 c 0.8748,0.02993 1.5581,0.299905 2.04709,0.809725 0.48993,0.50982 0.73536,1.20715 0.73536,2.091805 v 0.17998 h 0.22218 v -4.633561 c -0.22218,0.08999 -0.6052,0.17998 -1.14626,0.26997 -0.54198,0.08999 -1.04213,0.134893 -1.50231,0.134893 z m 14.89113,5.655711 v -0.797268 l -0.22311,9.3e-5 0.006,-0.929743 1.14718,1.86e-4 v 8.112125 h -1.8593 -0.22218 l -9.3e-4,-0.932253 v -0.106724 c 0,-0.440561 -0.1255,-0.811956 -0.40347,-1.097916 -0.27425,-0.281777 -0.63123,-0.416483 -1.0598,-0.427267 h -5.06845 v 4.626031 c 0,0.132103 0.0493,0.244312 0.14502,0.338299 0.0986,0.09724 0.21475,0.149116 0.34955,0.149116 h 0.28912 l 0.92872,10e-4 9.3e-4,2.082787 -0.92965,3.72e-4 h -7.99034 -0.92965 v -0.934763 -0.213447 l 0.92965,-0.0063 v 0.224882 h 7.99034 V 62.15788 h -0.28912 c -0.3858,0 -0.71955,-0.138704 -1.00123,-0.416111 -0.28261,-0.277408 -0.42299,-0.611059 -0.42299,-1.000954 v -5.555681 h 6.01019 c 0.69723,0.01497 1.26804,0.251191 1.71334,0.708486 0.4453,0.457388 0.66749,1.038419 0.66749,1.743186 v 0.112488 h 0.22311 z"
           id="Fill-8"
           fill="#cba6f7" />
      </g>
      <g
         id="g2"
         inkscape:label="NEW"
         transform="translate(17.314033,-0.83939776)">
        <path
           d="m 87.075068,42.794055 c 0.638112,-0.134985 1.172288,-0.202478 1.602623,-0.202478 0.430428,0 0.831014,0.0225 1.202038,0.06749 v 0.224882 c -3.012438,0.224975 -5.030522,2.031843 -6.054438,5.420789 L 79.685095,61.91286 c -0.207777,0.734795 -0.311619,1.567018 -0.311619,2.496668 H 79.150918 L 74.031336,54.647646 69.89114,63.19494 c -0.430335,0.914683 -0.849607,1.61945 -1.25763,2.114303 -0.408116,0.494853 -0.764265,0.892185 -1.068447,1.19209 -0.304181,0.299905 -0.612174,0.554815 -0.923793,0.764823 -0.845795,0.539755 -1.602623,0.809725 -2.270391,0.809725 -0.356149,0 -0.734516,-0.03746 -1.135195,-0.112488 v -0.224882 c 0.99426,-0.17998 1.869711,-0.667303 2.626539,-1.46206 0.786484,-0.839753 1.35041,-1.574455 1.691684,-2.204293 0.474866,-0.869688 0.86067,-1.634511 1.157507,-2.294283 L 64.192851,49.676811 c -0.207777,-0.43489 -0.486021,-0.757293 -0.834733,-0.967208 -0.348711,-0.209915 -0.708579,-0.314872 -1.079602,-0.314872 h -0.178028 v -0.224976 h 7.990992 v 0.224976 h -0.20034 c -0.445209,0 -0.741953,0.209915 -0.890418,0.629745 -0.01478,0.08999 -0.02222,0.194947 -0.02222,0.314965 0,0.119925 0.02966,0.269877 0.08906,0.449858 l 2.426201,6.118026 3.850796,-8.097437 0.200339,0.0225 4.407284,8.232328 2.136894,-7.759973 c 0.356148,-1.304578 0.927418,-2.436706 1.713902,-3.396383 0.934949,-1.139658 2.025614,-1.844426 3.272089,-2.114303 z"
           id="Fill-15"
           fill="#11111b" />
        <path
           d="m 62.278516,49.324381 h -0.178028 l -0.929185,-8.37e-4 -4.65e-4,-0.934019 v -0.213448 l 0.92965,-0.0063 v 0.224976 h 0.178028 c 0.371023,0 0.730891,0.104957 1.079602,0.314872 0.348712,0.209915 0.626956,0.532318 0.834733,0.967208 L 68.711414,61.7779 c -0.296837,0.659772 -0.682641,1.424595 -1.157507,2.294283 -0.341274,0.629838 -0.9052,1.36454 -1.691684,2.204293 -0.756828,0.794757 -1.632279,1.28208 -2.626539,1.46206 v 0.224882 c 0.400679,0.07502 0.779046,0.112488 1.135195,0.112488 0.667768,0 1.424596,-0.26997 2.270391,-0.809725 0.311619,-0.210008 0.619612,-0.464918 0.923793,-0.764823 0.304182,-0.299905 0.660331,-0.697237 1.068447,-1.19209 0.408023,-0.494853 0.827295,-1.19962 1.25763,-2.114303 l 4.140196,-8.547294 5.119582,9.761882 h 0.222558 c 0,-0.92965 0.103842,-1.761873 0.311619,-2.496668 l 4.140196,-13.608122 c 1.023916,-3.388946 3.042,-5.195814 6.054438,-5.420789 V 42.65907 c -0.371024,-0.045 -0.77161,-0.06749 -1.202038,-0.06749 -0.430335,0 -0.964511,0.06749 -1.602623,0.202478 -1.246475,0.269877 -2.33714,0.974645 -3.272089,2.114303 -0.786484,0.959677 -1.357754,2.091805 -1.713902,3.396383 l -2.136894,7.759973 -4.407284,-8.232328 0.589119,-0.869316 0.23046,0.430521 3.309182,6.181149 1.518583,-5.514869 c 0.392406,-1.437425 1.025218,-2.683435 1.891931,-3.741097 1.081648,-1.318523 2.352014,-2.12109 3.796318,-2.433824 l 0.0022,-4.65e-4 c 0.714436,-0.151068 1.313131,-0.222558 1.794968,-0.222558 0.427825,0 0.82869,0.02073 1.202781,0.06145 l 0.929,0.111093 -9.3e-5,1.044369 5.57e-4,0.865969 -0.860948,0.06628 c -2.623101,0.195784 -4.342209,1.811609 -5.234022,4.76334 l -4.138709,13.603567 c -0.184349,0.657263 -0.273131,1.401354 -0.273131,2.231532 v 0.92965 h -1.8593 v -0.276199 l -4.37958,-8.350859 -3.334469,6.883964 c -0.469938,0.998165 -0.933368,1.764197 -1.379042,2.304602 -0.432473,0.524416 -0.810655,0.944896 -1.133058,1.262744 -0.347875,0.342948 -0.700584,0.633649 -1.066494,0.880192 l -0.0098,0.0061 c -1.028379,0.656333 -1.95868,0.955773 -2.770543,0.955773 -0.359403,0 -0.717225,-0.03021 -1.116045,-0.09641 l -0.948521,-0.172357 -2.79e-4,-0.778489 v -0.21354 l 7.43e-4,-0.778117 0.763336,-0.14298 c 0.802381,-0.145212 1.505382,-0.544961 2.116441,-1.185769 0.717876,-0.766682 1.238294,-1.433427 1.550749,-2.009903 l 6.51e-4,-0.0013 c 0.381249,-0.69826 0.703745,-1.326797 0.967114,-1.886167 L 63.335714,50.040211 c -0.11788,-0.235015 -0.2643,-0.418063 -0.457109,-0.534177 -0.19439,-0.117043 -0.393242,-0.181653 -0.600089,-0.181653 z m -0.178028,-1.154626 -0.92965,0.0063 v -0.935878 l 0.92965,-9.3e-5 h 7.990992 l 0.929464,9.3e-5 3.72e-4,2.084089 -1.113163,9.3e-5 v 0.01506 c 0,0.03663 0.01525,0.07939 0.03235,0.129314 l 1.630513,4.11147 2.37665,-4.997519 0.842355,-1.770797 1.343995,0.151161 -0.589119,0.869316 -0.200339,-0.0225 -3.850796,8.097437 -2.426201,-6.118026 c -0.0594,-0.179981 -0.08906,-0.329933 -0.08906,-0.449858 0,-0.120018 0.0074,-0.224975 0.02222,-0.314965 0.148465,-0.41983 0.445209,-0.629745 0.890418,-0.629745 h 0.20034 v -0.224976 z"
           id="Fill-16"
           fill="#cba6f7" />
        <path
           d="m 49.19955,63.689796 c 0.385805,0 0.716017,-0.138704 0.990542,-0.416111 0.274526,-0.277408 0.41918,-0.611059 0.434054,-1.000955 V 49.811796 c -0.01487,-0.479885 -0.215214,-0.86225 -0.601019,-1.147188 -0.237432,-0.179887 -0.511958,-0.269877 -0.823577,-0.269877 h -0.289307 v -0.224976 h 7.412192 c 0.638112,0 1.205756,-0.05243 1.70284,-0.157389 0.497084,-0.104958 0.812421,-0.187511 0.946011,-0.247473 v 4.633561 h -0.222558 v -0.17998 c 0,-0.884748 -0.244869,-1.581985 -0.734609,-2.091805 -0.489647,-0.50982 -1.172289,-0.779791 -2.047833,-0.809726 H 55.18724 v 6.275416 h 3.093967 c 0.712298,-0.01497 1.291098,-0.251098 1.736215,-0.708486 0.445209,-0.457388 0.667767,-1.045949 0.667767,-1.765684 v -0.08999 h 0.222651 v 6.253011 h -0.222651 v -0.112488 c 0,-0.704767 -0.222558,-1.285798 -0.667767,-1.743186 -0.445117,-0.457295 -1.01648,-0.693519 -1.713903,-0.708486 H 55.18724 v 6.050533 h 4.073447 c 1.083228,0 2.040395,-0.359867 2.871409,-1.079695 0.831014,-0.719735 1.417158,-1.716878 1.758433,-2.991521 h 0.222558 l -0.845795,5.218311 H 48.910243 v -0.224882 z"
           id="Fill-17"
           fill="#11111b" />
        <path
           d="m 48.910243,63.689796 -0.92965,0.0063 V 62.76059 l 1.218957,-4.65e-4 c 0.128757,0 0.238177,-0.04788 0.329747,-0.140377 0.101239,-0.102262 0.156274,-0.224604 0.165199,-0.368606 l -2.79e-4,-12.427746 c -0.0097,-0.171056 -0.08404,-0.308086 -0.22795,-0.414345 l -0.0046,-0.0035 c -0.07512,-0.05699 -0.163433,-0.08116 -0.262069,-0.08116 h -0.289307 l -0.929464,2.79e-4 -1.86e-4,-1.148583 0.92965,-0.0063 v 0.224976 h 0.289307 c 0.311619,0 0.586145,0.08999 0.823577,0.269877 0.385805,0.284938 0.586145,0.667303 0.601019,1.147188 V 62.27273 c -0.01487,0.389896 -0.159528,0.723547 -0.434054,1.000955 -0.274525,0.277407 -0.604737,0.416111 -0.990542,0.416111 z m 0,-15.520041 -0.929743,0.0063 v -0.935878 l 8.341935,-9.3e-5 c 0.566064,0 1.069748,-0.04425 1.510774,-0.137403 0.396403,-0.08367 0.650755,-0.138053 0.7572,-0.185837 l 1.310527,-0.588561 -9.3e-5,5.77043 1.936647,9.3e-5 -1.150256,0.929371 c 0,0 -0.0072,0.281219 -0.01599,0.390546 -0.0072,0.08887 -0.03691,0.265601 -0.03691,0.265601 -0.08897,0.468636 -0.294606,0.868479 -0.616915,1.199527 -0.445117,0.457388 -1.023917,0.693519 -1.736215,0.708486 H 55.18724 v -6.275416 h 0.779046 c 0.875544,0.02993 1.558186,0.299906 2.047833,0.809726 0.48974,0.50982 0.734609,1.207057 0.734609,2.091805 v 0.17998 h 0.222558 v -4.633561 c -0.13359,0.05996 -0.448927,0.142515 -0.946011,0.247473 -0.497084,0.104957 -1.064728,0.157389 -1.70284,0.157389 z m 11.997504,4.858537 -0.220507,-9.3e-5 1.15025,-0.929371 v 8.112032 l -2.081114,-9.3e-4 -8.37e-4,-1.041208 c 0,-0.440561 -0.125967,-0.808795 -0.404212,-1.094755 C 59.076988,57.79219 58.720653,57.657484 58.291712,57.6467 h -2.174823 v 4.191233 h 3.143798 c 0.853883,0 1.607736,-0.285402 2.262767,-0.852675 0.700399,-0.606782 1.181399,-1.454995 1.469033,-2.529298 l 0.186209,-0.689336 0.715923,9.3e-5 h 0.19532 l 0.02315,0.930208 -0.222558,-5.58e-4 c -0.341275,1.274643 -0.927419,2.271786 -1.758433,2.991521 -0.831014,0.719828 -1.788181,1.079695 -2.871409,1.079695 H 55.18724 V 56.71705 h 3.116279 c 0.697423,0.01497 1.268786,0.251191 1.713903,0.708486 0.445209,0.457388 0.667767,1.038419 0.667767,1.743186 v 0.112488 h 0.222651 z m 3.20534,5.668633 -0.02315,-0.930208 1.115952,5.58e-4 -0.175053,1.077836 -0.972507,5.999217 H 48.910243 l -0.928999,-3.72e-4 -6.51e-4,-0.934391 v -0.213448 l 0.92965,-0.0063 v 0.224882 h 14.357049 z m -6.07145,-5.368821 -0.222559,-6.51e-4 v -1.108979 c 0,-0.608084 -0.138796,-1.097359 -0.475423,-1.447837 -0.299626,-0.31199 -0.713785,-0.469659 -1.226766,-0.513725 v 4.405797 l 2.162459,-1.86e-4 c 0.436657,-0.01246 0.797733,-0.145397 1.071979,-0.427081 0.235667,-0.242174 0.36089,-0.547006 0.39473,-0.907338 z"
           id="Fill-18"
           fill="#cba6f7" />
        <path
           d="m 54.052044,66.951194 c -0.9052,0.569875 -1.884586,0.85472 -2.938159,0.85472 -0.920074,0 -1.877242,-0.277408 -2.871409,-0.832223 -1.023917,-0.554815 -2.025614,-1.342042 -3.005001,-2.361682 l -9.771736,-10.21174 v 7.917457 c 0,0.389895 0.133591,0.716016 0.40068,0.978456 0.267088,0.262347 0.586144,0.393614 0.957167,0.393614 h 0.422898 v 0.224882 h -8.14682 v -0.224882 h 0.422926 c 0.370986,0 0.690032,-0.131267 0.957139,-0.393614 0.267107,-0.26244 0.400661,-0.588561 0.400661,-0.978456 V 49.586821 c -2.285256,-2.459203 -4.288568,-3.688851 -6.009936,-3.688851 -0.430344,0 -0.845842,0.07502 -1.246511,0.224975 l -0.111289,-0.202477 c 0.831005,-0.599811 1.728786,-0.899716 2.693345,-0.899716 0.638084,0 1.287305,0.123737 1.947663,0.37121 0.660349,0.247379 1.235374,0.528506 1.725067,0.843471 0.920047,0.614777 1.736215,1.289517 2.448512,2.024313 l 9.148406,9.559404 v -8.052349 c -0.01478,-0.389895 -0.155809,-0.716016 -0.422898,-0.978456 -0.267088,-0.262441 -0.586144,-0.393614 -0.957167,-0.393614 h -0.422898 v -0.224976 h 8.146801 v 0.224976 h -0.400679 c -0.37093,0 -0.689986,0.131173 -0.957075,0.393614 -0.267088,0.26244 -0.408116,0.581031 -0.422897,0.955959 v 12.843299 l 0.400586,0.42736 c 0,0 0.174402,0.18751 0.523114,0.562345 0.348712,0.374928 0.586144,0.622308 0.712298,0.742233 0.126153,0.120017 0.382086,0.356149 0.76789,0.708579 0.385898,0.352337 0.697517,0.59981 0.934949,0.742232 0.237433,0.142423 0.563833,0.329933 0.979387,0.562346 0.41546,0.232412 0.793921,0.378646 1.135195,0.438608 0.385805,0.08999 0.793921,0.134986 1.224256,0.134986 0.430335,0 0.845795,-0.06006 1.246475,-0.179981 z"
           id="Fill-19"
           fill="#11111b" />
        <path
           d="m 29.099664,63.689796 -0.92965,0.0063 v -0.935971 h 1.352576 c 0.11866,0 0.220197,-0.04323 0.305632,-0.127176 0.08544,-0.08395 0.122518,-0.190485 0.122518,-0.315244 l -3.25e-4,-12.362578 c -1.939752,-2.033423 -3.600869,-3.127528 -5.079961,-3.127528 -0.317838,0 -0.624734,0.05522 -0.920651,0.166035 l -0.750321,0.268018 -0.898422,-1.613686 0.667506,-0.48128 c 0.998334,-0.720571 2.078652,-1.075605 3.237433,-1.075605 0.74477,0 1.503086,0.141493 2.27384,0.430242 0.728306,0.272946 1.361621,0.584843 1.908599,0.93653 l 0.0068,0.0046 c 0.97696,0.652893 1.843115,1.370025 2.601523,2.152418 l 7.549222,7.888359 -3.72e-4,-5.721716 c -0.0088,-0.129966 -0.05401,-0.241245 -0.144374,-0.330026 -0.08544,-0.08395 -0.186953,-0.127083 -0.305669,-0.127083 H 39.67267 l -0.928906,-0.0018 c 0,0 -0.0025,-0.769564 -7.44e-4,-1.146537 l 0.92965,-0.0063 v 0.224976 h 0.422898 c 0.371023,0 0.690079,0.131173 0.957167,0.393614 0.267089,0.26244 0.408117,0.588561 0.422898,0.978456 v 8.052349 l -9.148406,-9.559404 c -0.712297,-0.734796 -1.528465,-1.409536 -2.448512,-2.024313 -0.489693,-0.314965 -1.064718,-0.596092 -1.725067,-0.843471 -0.660358,-0.247473 -1.309579,-0.37121 -1.947663,-0.37121 -0.964559,0 -1.86234,0.299905 -2.693345,0.899716 l 0.111289,0.202477 c 0.400669,-0.149952 0.816167,-0.224975 1.246511,-0.224975 1.721368,0 3.72468,1.229648 6.009936,3.688851 v 12.730905 c 0,0.389895 -0.133554,0.716016 -0.400661,0.978456 -0.267107,0.262347 -0.586153,0.393614 -0.957139,0.393614 z m 10.57302,-15.520041 -0.92965,0.0063 v -0.935971 h 9.076451 l 0.919424,0.0046 0.01459,2.073863 -1.334698,0.0059 c -0.118623,0 -0.220141,0.04313 -0.305576,0.127083 -0.0886,0.08711 -0.136751,0.192158 -0.144746,0.315802 v 12.452753 l 0.150417,0.160458 0.524323,0.563647 c 0.329467,0.354196 0.553141,0.588468 0.672229,0.701792 0.123923,0.117787 0.375393,0.349735 0.754225,0.69575 0.325936,0.297674 0.58568,0.511215 0.786298,0.631512 0.231483,0.138889 0.549795,0.321565 0.954937,0.548121 0.309387,0.173101 0.588096,0.289679 0.842262,0.334395 l 0.02519,0.0044 0.02501,0.0059 c 0.319242,0.07447 0.657077,0.110722 1.013133,0.110722 0.338207,0 0.664886,-0.04667 0.979851,-0.140935 l 0.817069,-0.244684 0.687105,1.735749 -0.653265,0.411184 c -1.057663,0.665816 -2.202341,0.997608 -3.433384,0.997608 -1.062496,0 -2.17129,-0.307436 -3.319314,-0.947128 -1.098847,-0.596184 -2.176497,-1.438168 -3.22821,-2.53311 l -8.170972,-8.538927 v 5.601327 c 0,0.124759 0.03709,0.231296 0.122528,0.315244 0.08544,0.08395 0.186953,0.127176 0.305669,0.127176 l 1.354035,-0.0046 -0.0015,0.940526 v 0.213448 l -9.3e-5,0.934391 -9.076377,3.72e-4 h -0.92965 V 63.90966 63.696212 l 0.92965,-0.0063 v 0.224882 h 8.14682 v -0.224882 h -0.422898 c -0.371023,0 -0.690079,-0.131267 -0.957167,-0.393614 -0.267089,-0.26244 -0.40068,-0.588561 -0.40068,-0.978456 v -7.917457 l 9.771736,10.21174 c 0.979387,1.01964 1.981084,1.806867 3.005001,2.361682 0.994167,0.554815 1.951335,0.832223 2.871409,0.832223 1.053573,0 2.032959,-0.284845 2.938159,-0.85472 l -0.08906,-0.224883 c -0.40068,0.119925 -0.81614,0.179981 -1.246475,0.179981 -0.430335,0 -0.838451,-0.045 -1.224256,-0.134986 C 51.150979,66.711344 50.772518,66.56511 50.357058,66.332698 49.941504,66.100285 49.615104,65.912775 49.377671,65.770352 49.140239,65.62793 48.82862,65.380457 48.442722,65.02812 48.056918,64.67569 47.800985,64.439558 47.674832,64.319541 47.548678,64.199616 47.311246,63.952236 46.962534,63.577308 L 46.43942,63.014963 46.038834,62.587603 V 49.744304 c 0.01478,-0.374928 0.155809,-0.693519 0.422897,-0.955959 0.267089,-0.262441 0.586145,-0.393614 0.957075,-0.393614 h 0.400679 v -0.224976 z"
           id="Fill-20"
           fill="#cba6f7" />
      </g>
      <g
         id="g3"
         inkscape:label="DOG"
         transform="translate(-6.4470318,9.7212367)">
        <path
           d="m 161.38443,32.612583 c -2.56397,0 -4.60083,-0.705511 -6.11244,-2.116534 -1.51069,-1.410929 -2.26556,-3.350179 -2.26556,-5.817563 0,-2.467477 0.75859,-4.395849 2.27671,-5.785118 1.51812,-1.389269 3.62285,-2.083903 6.31604,-2.083903 1.15928,0 2.35574,0.09771 3.58752,0.293025 1.23086,0.195413 2.16888,0.430614 2.81405,0.705512 l -0.21475,4.146145 h -0.19336 c -0.74465,-2.706211 -2.38456,-4.059316 -4.91971,-4.059316 -3.29375,0 -4.94109,2.329981 -4.94109,6.989852 0,2.112815 0.34025,3.748162 1.02076,4.905855 0.6805,1.157786 1.7152,1.736679 3.1041,1.736679 0.75859,0 1.42143,-0.206289 1.98666,-0.618682 0.56615,-0.412486 0.84877,-0.980502 0.84877,-1.704048 l 0.0214,-2.97395 c 0,-0.318405 -0.0967,-0.560765 -0.29005,-0.727172 -0.19337,-0.166501 -0.46204,-0.249704 -0.80508,-0.249704 h -0.34397 v -0.217074 h 7.2178 v 0.217074 h -0.32165 c -0.35885,0 -0.63031,0.0832 -0.81717,0.249704 -0.18593,0.166407 -0.27145,0.408767 -0.25751,0.727172 v 3.581755 c -0.80229,1.027449 -2.25533,1.816164 -4.36099,2.366145 -1.08769,0.2894 -2.20513,0.434146 -3.35046,0.434146 z"
           id="Fill-9"
           fill="#11111b" />
        <path
           d="m 163.27441,25.036587 -0.92965,0.0061 V 24.10703 l 8.14745,-9.3e-5 0.92965,8.37e-4 v 2.074328 l -0.92965,0.0012 h -0.32165 c -0.0446,0 -0.10134,0.0073 -0.14503,0.0145 v 0.01181 3.922564 l -0.19709,0.252121 c -0.89711,1.150349 -2.50075,2.077582 -4.85742,2.693382 -1.16485,0.309481 -2.36038,0.464546 -3.58659,0.464546 -2.8345,0 -5.07681,-0.807029 -6.74647,-2.366703 -1.6901,-1.578359 -2.56118,-3.737099 -2.56118,-6.497044 0,-2.764686 0.87759,-4.914315 2.57885,-6.470921 1.67151,-1.529739 3.9789,-2.32775 6.94355,-2.32775 1.20669,0 2.45149,0.101239 3.73255,0.304553 1.32847,0.210752 2.33807,0.471983 3.03345,0.768542 l 0.59683,0.254817 -0.29377,5.67607 h -1.86209 l 0.013,-0.236503 -0.12365,-0.446511 c -0.61264,-2.228464 -1.93553,-3.376302 -4.02259,-3.376302 -1.04865,0 -1.89556,0.271922 -2.524,0.865039 -1.04493,0.985057 -1.48744,2.732427 -1.48744,5.195163 0,1.907455 0.27796,3.389689 0.89246,4.434894 0.50387,0.857231 1.27455,1.27799 2.30275,1.27799 0.54849,0 1.03005,-0.141957 1.43909,-0.440282 0.31516,-0.22981 0.46669,-0.549516 0.46669,-0.956145 l 0.0214,-2.97646 c 0,-0.01106 -9.3e-4,-0.02426 -0.003,-0.03635 -0.0437,-0.01385 -0.1004,-0.005 -0.16269,-0.005 h -0.34397 l -0.92965,1.86e-4 v -1.140773 l 0.92965,-0.0061 v 0.217074 h 0.34397 c 0.34304,0 0.61171,0.0832 0.80508,0.249704 0.19337,0.166407 0.29005,0.408767 0.29005,0.727172 l -0.0214,2.97395 c 0,0.723546 -0.28262,1.291562 -0.84877,1.704048 -0.56523,0.412393 -1.22807,0.618682 -1.98666,0.618682 -1.3889,0 -2.4236,-0.578893 -3.1041,-1.736679 -0.68051,-1.157693 -1.02076,-2.79304 -1.02076,-4.905855 0,-4.659871 1.64734,-6.989852 4.94109,-6.989852 2.53515,0 4.17506,1.353105 4.91971,4.059316 h 0.19336 l 0.21475,-4.146145 c -0.64517,-0.274898 -1.58319,-0.510099 -2.81405,-0.705512 -1.23178,-0.195319 -2.42824,-0.293025 -3.58752,-0.293025 -2.69319,0 -4.79792,0.694634 -6.31604,2.083903 -1.51812,1.389269 -2.27671,3.317641 -2.27671,5.785118 0,2.467384 0.75487,4.406634 2.26556,5.817563 1.51161,1.411023 3.54847,2.116534 6.11244,2.116534 1.14533,0 2.26277,-0.144746 3.35046,-0.434146 2.10566,-0.549981 3.5587,-1.338696 4.36099,-2.366145 v -3.581755 c -0.0139,-0.318405 0.0716,-0.560765 0.25751,-0.727172 0.18686,-0.166501 0.45832,-0.249704 0.81717,-0.249704 h 0.32165 v -0.217074 z"
           id="Fill-10"
           fill="#cba6f7" />
        <path
           d="m 142.08955,16.809465 c 1.84721,0 3.44063,0.311153 4.77933,0.933461 1.3387,0.622215 2.36689,1.53039 3.08272,2.724246 0.71583,1.193949 1.07375,2.608505 1.07375,4.243852 0,2.474635 -0.79486,4.410259 -2.38456,5.806779 -1.5897,1.39652 -3.77345,2.09478 -6.55124,2.09478 -2.77872,0 -4.95875,-0.69826 -6.54195,-2.09478 -1.58226,-1.39652 -2.37339,-3.332144 -2.37339,-5.806779 0,-2.474635 0.79113,-4.410259 2.37339,-5.806779 1.5832,-1.39652 3.76323,-2.09478 6.54195,-2.09478 z m -3.07249,12.915998 c 0.74465,1.201107 1.77284,1.801754 3.08272,1.801754 1.3108,0 2.33435,-0.600647 3.07156,-1.801754 0.73814,-1.201201 1.10721,-2.872619 1.10721,-5.014439 0,-2.14182 -0.36907,-3.813331 -1.10721,-5.014439 -0.73721,-1.2012 -1.76076,-1.801754 -3.07156,-1.801754 -1.30988,0 -2.33435,0.600554 -3.07157,1.801754 -0.73814,1.201108 -1.10628,2.872619 -1.10628,5.014439 0,2.14182 0.36535,3.813238 1.09513,5.014439 z"
           id="Fill-11"
           fill="#11111b" />
        <path
           d="m 142.08955,15.879815 c 1.99875,0 3.72139,0.34648 5.17071,1.020012 1.51719,0.704767 2.67739,1.736957 3.48898,3.089226 0.79671,1.329214 1.20576,2.901345 1.20576,4.721971 0,2.776678 -0.91664,4.938207 -2.70064,6.505132 -1.7403,1.529553 -4.12207,2.326077 -7.16481,2.326077 -3.0446,0 -5.42265,-0.797361 -7.15644,-2.327378 -1.77564,-1.566739 -2.68855,-3.727711 -2.68855,-6.503831 0,-2.776121 0.91291,-4.937185 2.68855,-6.503831 1.73379,-1.530018 4.11184,-2.327378 7.15644,-2.327378 z m 0,0.92965 c -2.77872,0 -4.95875,0.69826 -6.54195,2.09478 -1.58226,1.39652 -2.37339,3.332144 -2.37339,5.806779 0,2.474635 0.79113,4.410259 2.37339,5.806779 1.5832,1.39652 3.76323,2.09478 6.54195,2.09478 2.77779,0 4.96154,-0.69826 6.55124,-2.09478 1.5897,-1.39652 2.38456,-3.332144 2.38456,-5.806779 0,-1.635347 -0.35792,-3.049903 -1.07375,-4.243852 -0.71583,-1.193856 -1.74402,-2.102031 -3.08272,-2.724246 -1.3387,-0.622308 -2.93212,-0.933461 -4.77933,-0.933461 z m -3.07249,12.915998 c -0.72978,-1.201201 -1.09513,-2.872619 -1.09513,-5.014439 0,-2.14182 0.36814,-3.813331 1.10628,-5.014439 0.73722,-1.2012 1.76169,-1.801754 3.07157,-1.801754 1.3108,0 2.33435,0.600554 3.07156,1.801754 0.73814,1.201108 1.10721,2.872619 1.10721,5.014439 0,2.14182 -0.36907,3.813238 -1.10721,5.014439 -0.73721,1.201107 -1.76076,1.801754 -3.07156,1.801754 -1.30988,0 -2.33807,-0.600647 -3.08272,-1.801754 z m 0.79206,-0.486393 c 0.55593,0.894788 1.31359,1.358497 2.29066,1.358497 0.97613,0 1.73007,-0.463523 2.2795,-1.35859 0.66563,-1.083135 0.96962,-2.596605 0.96962,-4.527953 0,-1.931348 -0.30399,-3.444911 -0.96962,-4.527953 -0.54943,-0.895067 -1.30337,-1.35859 -2.2795,-1.35859 -0.97614,0 -1.73008,0.463523 -2.27951,1.35859 -0.66562,1.083042 -0.96869,2.596605 -0.96869,4.527953 0,1.930883 0.30028,3.44426 0.95754,4.528046 z"
           id="Fill-12"
           fill="#cba6f7" />
        <path
           d="m 129.02425,19.132195 c 1.51812,1.331351 2.27671,3.191023 2.27671,5.578829 0,2.387806 -0.75487,4.25101 -2.26648,5.589706 -1.51068,1.338603 -3.61262,2.007951 -6.30489,2.007951 h -8.14187 v -0.217073 h 0.27982 c 0.37186,0 0.69073,-0.13387 0.95568,-0.401609 0.26495,-0.267739 0.4044,-0.58977 0.41927,-0.965999 V 18.567804 c 0,-0.347317 -0.13944,-0.640435 -0.41927,-0.87917 -0.27889,-0.238827 -0.59776,-0.358194 -0.95568,-0.358194 h -0.25751 l -0.0223,-0.217073 h 8.14187 c 2.69227,0 4.79049,0.672974 6.29466,2.018828 z m -8.378,-0.933462 v 13.024489 h 1.65384 c 1.33219,0 2.37712,-0.575175 3.13664,-1.72571 0.7586,-1.150534 1.13882,-2.745999 1.13882,-4.786488 0,-2.040489 -0.38022,-3.636047 -1.13882,-4.786489 -0.75952,-1.150534 -1.80445,-1.725802 -3.13664,-1.725802 z"
           id="Fill-13"
           fill="#11111b" />
        <path
           d="m 114.58772,32.091608 -0.92965,0.006 9.3e-4,-0.935692 h 1.20854 c 0.11528,0 0.21289,-0.04304 0.2947,-0.125875 0.092,-0.09306 0.14224,-0.204244 0.1506,-0.334023 V 18.567804 c 0,-0.07 -0.0372,-0.12448 -0.0939,-0.172636 -0.10319,-0.08813 -0.2194,-0.135078 -0.35141,-0.135078 h -0.25751 l -0.84226,-9.3e-5 -0.10412,-1.049017 -0.0995,-1.026426 0.84041,-8.37e-4 h 8.32501 c 2.96094,0 5.25624,0.773841 6.91102,2.252635 1.70869,1.500548 2.59,3.584823 2.59,6.274672 0,2.689663 -0.87759,4.777657 -2.57978,6.285549 -1.66035,1.471822 -3.9603,2.241758 -6.92124,2.241758 h -8.14187 l -0.92872,-2.79e-4 -9.3e-4,-1.140402 0.92965,-0.006 v 0.217073 h 8.14187 c 2.69227,0 4.79421,-0.669348 6.30489,-2.007951 1.51161,-1.338696 2.26648,-3.2019 2.26648,-5.589706 0,-2.387806 -0.75859,-4.247478 -2.27671,-5.578829 -1.50417,-1.345854 -3.60239,-2.018828 -6.29466,-2.018828 h -8.14187 l 0.0223,0.217073 h 0.25751 c 0.35792,0 0.67679,0.119367 0.95568,0.358194 0.27983,0.238735 0.41927,0.531853 0.41927,0.87917 V 30.724 c -0.0149,0.376229 -0.15432,0.69826 -0.41927,0.965999 -0.26495,0.267739 -0.58382,0.401609 -0.95568,0.401609 z m 6.05853,-13.892875 h 1.65384 c 1.33219,0 2.37712,0.575268 3.13664,1.725802 0.7586,1.150442 1.13882,2.746 1.13882,4.786489 0,2.040489 -0.38022,3.635954 -1.13882,4.786488 -0.75952,1.150535 -1.80445,1.72571 -3.13664,1.72571 h -1.65384 z m 0.92965,0.92965 v 11.165189 h 0.72419 c 1.00402,0 1.78865,-0.440747 2.36038,-1.308018 0.67679,-1.025776 0.98543,-2.455298 0.98543,-4.27453 0,-1.819232 -0.30864,-3.248847 -0.98543,-4.27453 -0.57173,-0.867364 -1.35636,-1.308111 -2.36038,-1.308111 z"
           id="Fill-14"
           fill="#cba6f7" />
      </g>
      <g
         id="g1"
         inkscape:label="OLD"
         transform="translate(10,10)">
        <path
           d="m 89.805357,18.853432 c 1.518025,1.331351 2.277084,3.191023 2.277084,5.578829 0,2.387806 -0.755433,4.25101 -2.2663,5.589706 -1.51096,1.338603 -3.61262,2.007951 -6.304979,2.007951 h -8.141688 v -0.217074 h 0.279267 c 0.372418,0 0.691009,-0.133869 0.955959,-0.401608 0.26495,-0.26774 0.404584,-0.58977 0.4189,-0.966 V 18.289041 c 0,-0.347317 -0.139633,-0.640436 -0.4189,-0.87917 -0.279267,-0.238827 -0.597951,-0.358194 -0.955959,-0.358194 h -0.257792 l -0.02148,-0.217073 h 8.141688 c 2.692359,0 4.790486,0.672973 6.294195,2.018828 z M 81.427445,17.91997 v 13.024488 h 1.654033 c 1.331909,0 2.377394,-0.575174 3.13636,-1.725709 0.759059,-1.150535 1.138542,-2.746 1.138542,-4.786488 0,-2.040489 -0.379483,-3.636047 -1.138542,-4.786489 -0.758966,-1.150534 -1.804451,-1.725802 -3.13636,-1.725802 z"
           id="Fill-21"
           fill="#11111b" />
        <path
           d="m 75.369474,31.812844 -0.464453,0.003 0.153578,-0.932439 0.590142,-1.86e-4 c 0.115277,0 0.213169,-0.04304 0.295164,-0.125874 0.09203,-0.09306 0.14205,-0.204244 0.150045,-0.334023 V 18.289041 c 0,-0.07 -0.03709,-0.12448 -0.09343,-0.172636 -0.103098,-0.08813 -0.219583,-0.135078 -0.351779,-0.135078 l -0.967766,-0.005 -0.225068,-2.073491 0.729589,0.0021 h 8.325666 c 2.960284,0 5.256427,0.773841 6.910739,2.252635 1.708882,1.500548 2.59019,3.584823 2.59019,6.274672 0,2.689663 -0.877589,4.777657 -2.579499,6.285549 -1.661192,1.471821 -3.961146,2.241757 -6.92143,2.241757 h -8.79142 l 0.185279,-1.143748 0.464453,-0.003 v 0.217074 h 8.141688 c 2.692359,0 4.794019,-0.669348 6.304979,-2.007951 1.510867,-1.338696 2.2663,-3.2019 2.2663,-5.589706 0,-2.387806 -0.759059,-4.247478 -2.277084,-5.578829 -1.503709,-1.345855 -3.601836,-2.018828 -6.294195,-2.018828 h -8.141688 l 0.02148,0.217073 h 0.257792 c 0.358008,0 0.676692,0.119367 0.955959,0.358194 0.279267,0.238734 0.4189,0.531853 0.4189,0.87917 v 12.156195 c -0.01432,0.37623 -0.15395,0.69826 -0.4189,0.966 -0.26495,0.267739 -0.583541,0.401608 -0.955959,0.401608 z M 81.427445,17.91997 h 1.654033 c 1.331909,0 2.377394,0.575268 3.13636,1.725802 0.759059,1.150442 1.138542,2.746 1.138542,4.786489 0,2.040488 -0.379483,3.635953 -1.138542,4.786488 -0.758966,1.150535 -1.804451,1.725709 -3.13636,1.725709 h -1.654033 z m 0.92965,0.92965 v 11.165188 h 0.724383 c 1.004022,0 1.788274,-0.440747 2.360381,-1.308017 0.676785,-1.025776 0.984871,-2.455298 0.984871,-4.27453 0,-1.819232 -0.308086,-3.248848 -0.984871,-4.274531 -0.572107,-0.867363 -1.356359,-1.30811 -2.360381,-1.30811 z"
           id="Fill-22"
           fill="#cba6f7" />
        <path
           d="m 61.642543,31.812844 c 0.372324,0 0.691008,-0.133869 0.955959,-0.401608 0.26495,-0.26774 0.404583,-0.58977 0.4189,-0.966 V 18.419285 c -0.01432,-0.535478 -0.243476,-0.933461 -0.687476,-1.193949 -0.214749,-0.115742 -0.443908,-0.173659 -0.687383,-0.173659 h -0.279267 v -0.217073 h 7.712003 v 0.217073 h -0.279266 c -0.372325,0 -0.694542,0.13387 -0.96665,0.401609 -0.272109,0.267739 -0.40821,0.589677 -0.40821,0.965999 v 12.503512 h 2.642344 c 1.045392,0 1.969092,-0.347317 2.771101,-1.041951 0.802009,-0.694635 1.367701,-1.657008 1.697076,-2.887121 h 0.214842 L 73.93019,32.029918 H 61.363276 v -0.217074 z"
           id="Fill-23"
           fill="#11111b" />
        <path
           d="m 61.363276,31.812844 v 0.217074 l -0.928163,-0.210659 -0.0099,-0.931695 1.217284,-0.0044 c 0.115183,0 0.213168,-0.04304 0.295163,-0.125874 0.09204,-0.09306 0.142051,-0.204244 0.150046,-0.334023 l -4.65e-4,-11.998992 c -0.009,-0.169382 -0.07549,-0.301485 -0.215865,-0.389616 -0.07186,-0.03551 -0.148186,-0.05336 -0.228879,-0.05336 l -1.255679,0.004 0.0055,-1.150721 h 0.971484 l -5.57e-4,0.217073 h 0.279267 c 0.243475,0 0.472634,0.05792 0.687383,0.173659 0.444,0.260488 0.673159,0.658471 0.687476,1.193949 V 30.44521 c -0.01432,0.37623 -0.15395,0.69826 -0.4189,0.966 -0.264951,0.267739 -0.583635,0.401608 -0.955959,0.401608 z m -0.970927,-14.97824 v -0.92965 h 8.68293 l 0.928256,-0.0021 0.0014,1.143934 -0.0028,0.924723 c 0,0 -0.654194,-0.0024 -0.926861,0.0099 h -0.279266 c -0.121785,0 -0.225719,0.04713 -0.314687,0.134613 -0.08562,0.08432 -0.130523,0.184815 -0.130523,0.303345 v 11.573863 h 1.712694 c 0.816047,0 1.536433,-0.27276 2.162459,-0.815025 0.671486,-0.581588 1.094384,-1.254748 1.094384,-1.254748 l 1.216261,-1.8593 h 0.203872 c 8.37e-4,0.307249 0.006,0.931045 0.006,0.931045 l -0.214842,-0.0014 c -0.329375,1.230113 -0.895067,2.192486 -1.697076,2.887121 -0.802009,0.694634 -1.725709,1.041951 -2.771101,1.041951 H 67.421153 V 18.419285 c 0,-0.376322 0.136101,-0.69826 0.40821,-0.965999 0.272108,-0.267739 0.594325,-0.401609 0.96665,-0.401609 h 0.279266 v -0.217073 z m 14.354167,10.160516 -0.006,-0.931045 1.094756,0.002 -0.171056,1.076349 -0.942851,5.817098 H 61.363276 l -0.928163,-0.0016 -0.0015,-1.1391 0.92965,0.211031 c 0,0 12.566914,0 12.566914,0 z"
           id="Fill-24"
           fill="#cba6f7" />
        <path
           d="m 51.37865,16.530701 c 1.847493,0 3.440727,0.311154 4.779795,0.933462 1.338975,0.622215 2.366517,1.53039 3.082626,2.724246 0.716016,1.193949 1.074117,2.608505 1.074117,4.243852 0,2.474635 -0.79485,4.410259 -2.384552,5.806779 -1.589608,1.39652 -3.773635,2.09478 -6.551986,2.09478 -2.778352,0 -4.958753,-0.69826 -6.541203,-2.09478 -1.582543,-1.39652 -2.373768,-3.332144 -2.373768,-5.806779 0,-2.474635 0.791225,-4.410259 2.373768,-5.80678 1.58245,-1.39652 3.762851,-2.09478 6.541203,-2.09478 z m -3.071935,12.915998 c 0.744742,1.201108 1.772284,1.801755 3.082719,1.801755 1.310341,0 2.334351,-0.600647 3.071935,-1.801755 0.737491,-1.2012 1.106283,-2.872618 1.106283,-5.014438 0,-2.141821 -0.368792,-3.813331 -1.106283,-5.014439 -0.737584,-1.201201 -1.761594,-1.801754 -3.071935,-1.801754 -1.310435,0 -2.334351,0.600553 -3.071935,1.801754 -0.737585,1.201108 -1.106284,2.872618 -1.106284,5.014439 0,2.14182 0.365167,3.813238 1.0955,5.014438 z"
           id="Fill-25"
           fill="#11111b" />
        <path
           d="m 51.37865,15.601051 c 1.999677,0 3.722225,0.346481 5.171549,1.020012 1.516538,0.704768 2.677113,1.736958 3.48814,3.089227 0.797174,1.329213 1.206499,2.901344 1.206499,4.721971 0,2.776678 -0.916913,4.938207 -2.700633,6.505132 -1.740955,1.529553 -4.122718,2.326077 -7.165555,2.326077 -3.044046,0 -5.422555,-0.797361 -7.156352,-2.327379 -1.775353,-1.566739 -2.688269,-3.72771 -2.688269,-6.50383 0,-2.776121 0.912916,-4.937185 2.688269,-6.503831 1.733797,-1.530018 4.112306,-2.327379 7.156352,-2.327379 z m 0,0.92965 c -2.778352,0 -4.958753,0.69826 -6.541203,2.09478 -1.582543,1.396521 -2.373768,3.332145 -2.373768,5.80678 0,2.474635 0.791225,4.410259 2.373768,5.806779 1.58245,1.39652 3.762851,2.09478 6.541203,2.09478 2.778351,0 4.962378,-0.69826 6.551986,-2.09478 1.589702,-1.39652 2.384552,-3.332144 2.384552,-5.806779 0,-1.635347 -0.358101,-3.049903 -1.074117,-4.243852 -0.716109,-1.193856 -1.743651,-2.102031 -3.082626,-2.724246 -1.339068,-0.622308 -2.932302,-0.933462 -4.779795,-0.933462 z m -3.071935,12.915998 c -0.730333,-1.2012 -1.0955,-2.872618 -1.0955,-5.014438 0,-2.141821 0.368699,-3.813331 1.106284,-5.014439 0.737584,-1.201201 1.7615,-1.801754 3.071935,-1.801754 1.310341,0 2.334351,0.600553 3.071935,1.801754 0.737491,1.201108 1.106283,2.872618 1.106283,5.014439 0,2.14182 -0.368792,3.813238 -1.106283,5.014438 -0.737584,1.201108 -1.761594,1.801755 -3.071935,1.801755 -1.310435,0 -2.337977,-0.600647 -3.082719,-1.801755 z m 0.79234,-0.486392 c 0.555931,0.894788 1.313038,1.358497 2.290379,1.358497 0.976411,0 1.730078,-0.463524 2.279687,-1.35859 0.665072,-1.083136 0.968881,-2.596606 0.968881,-4.527953 0,-1.931348 -0.303809,-3.444911 -0.968881,-4.527953 -0.549609,-0.895067 -1.303276,-1.35859 -2.279687,-1.35859 -0.976505,0 -1.730079,0.463523 -2.279688,1.35859 -0.665071,1.083042 -0.968881,2.596605 -0.968881,4.527953 0,1.930883 0.300463,3.44426 0.95819,4.528046 z"
           id="Fill-26"
           fill="#cba6f7" />
      </g>
    </g>
  </g>
  <metadata
     id="metadata1">
    <rdf:RDF>
      <cc:Work
         rdf:about="">
        <dc:title>fullname-logo</dc:title>
      </cc:Work>
    </rdf:RDF>
  </metadata>
</svg>
