<?xml version="1.0" encoding="UTF-8" standalone="no"?>
<!DOCTYPE svg PUBLIC "-//W3C//DTD SVG 1.1//EN" "http://www.w3.org/Graphics/SVG/1.1/DTD/svg11.dtd">
<svg width="100%" height="100%" viewBox="0 0 464 642" version="1.1" xmlns="http://www.w3.org/2000/svg" xmlns:xlink="http://www.w3.org/1999/xlink" xml:space="preserve" xmlns:serif="http://www.serif.com/" style="fill-rule:evenodd;clip-rule:evenodd;stroke-linejoin:round;stroke-miterlimit:2;">
    <g transform="matrix(1,0,0,1,-158.11,-36.0527)">
        <g id="g16994" transform="matrix(0.909752,0,0,0.909752,13.021,3.42083)">
            <g id="path17002" transform="matrix(1,0,0,1,28.7061,-62.5945)">
                <path d="M359.14,803.524C353.883,787.025 361.042,762.59 362.061,753.506C359.821,750.983 357.943,753.029 355.565,751.001C354.309,773.673 348.474,780.816 343.161,771.413C327.91,744.424 314.013,727.069 278.386,691.21C274.735,687.535 273.254,686.817 270.658,684.218C270.175,689.143 269.988,689.038 269.585,696.712C269.335,701.466 269.419,699.743 269.583,703.655C269.591,703.831 274.871,707.306 276.034,708.879C283.778,719.359 278.47,735.113 269.682,739.366C268.755,739.814 268.556,749.891 267.858,759.296C266.993,770.969 243.677,769.469 244.43,759.101C245.538,743.863 244.75,741.437 242.818,740.307C227.851,731.549 231.306,706.387 241.642,701.622C243.326,692.078 245.174,668.764 242.607,666.422C233.956,658.525 215.053,646.349 201.702,640.146C177.779,629.03 158.906,620.294 150.315,615.619C133.902,606.689 129.265,592.294 131.181,582.798C133.039,573.59 138.733,563.662 158.791,548.556C164.65,544.143 158.847,529.303 158.233,524.286C156.588,510.831 169.08,495.711 222.987,479.229C226.354,478.2 269.751,465.613 269.48,464.296C262.569,430.625 269.523,428.052 267.338,414.754C266.517,409.758 255.405,402.658 252.124,398.162C237.394,377.982 226.049,324.297 250.133,304.588C251.718,303.291 246.31,287.723 243.636,282.845C241.291,278.569 238.024,261.601 238.967,249.674C239.983,236.815 239.146,239.336 234.93,243.709C226.282,252.681 222.68,245.32 222.685,240.483C222.707,218.148 226.825,204.682 238.388,188.514C240.723,185.25 248.309,180.103 245.853,178.605C232.915,170.715 221.57,159.139 225.443,154.635C229.204,150.264 238.169,152.783 241.968,152.781C249.817,152.778 261.069,150.657 264.279,148.873C266.534,147.62 276.917,145.917 268.885,139.857C263.446,135.752 266.915,130.632 272.784,130.244C285.434,129.407 285.946,130.254 301.043,129.669C308.663,129.374 321.316,130.392 312.077,121.519C304.597,114.336 305.095,105.922 308.773,106.248C320.599,107.299 326.765,111.286 357.731,113.08C365.691,113.541 370.272,113.353 365.389,105.236C361.814,99.292 369.034,97.228 377.509,99.173C403.168,105.059 415.379,107.418 428.729,118.906C434.572,123.934 433.174,117.879 428.74,109.736C426.648,105.895 436.946,106.353 443.044,111.022C444.246,111.942 452.22,117.17 458.458,122.903C466.185,130.004 467.012,131.267 473.875,146.111C475.06,148.673 476.097,143.698 476.368,136.428C476.547,131.604 476.55,130.667 475.83,123.516C475.111,116.375 483.462,123.176 488.722,130.882C496.844,142.78 498.979,146.618 499.043,169.374C499.052,172.682 502.64,173.92 508.321,177.642C522.323,186.817 530.823,204.595 534.222,224.375C536.19,235.832 532.862,243.24 527.791,236.916C524.634,232.979 523.425,230.679 523.884,232.702C527.645,249.285 528.69,261.476 526.948,277.795C524.459,301.129 522.703,292.933 518.679,288.612C517.205,296.854 513.939,307.558 517.459,309.973C540.794,325.985 530.498,394.405 502.881,410.586C499.115,412.793 499.409,412.766 499.537,431.585C499.656,449.056 497.931,458.28 495.273,463.85C495.088,464.236 509.504,469.275 514.161,470.888C542.759,480.796 565.411,489.366 579.861,496.404C600.491,506.452 610.636,517.033 604.573,536.199C602.522,542.684 603.481,544.376 613.35,549.482C626.562,556.318 644.436,578.278 640.043,592.171C636.167,604.43 640.283,608.411 600.797,624.097C597.112,625.561 573.384,636.048 563.873,640.881C552.5,646.66 525.897,663.821 525.555,665.631C523.526,676.382 522.77,693.724 523.133,701.603C537.123,708.966 533.899,734.053 522.916,740.185C521.835,740.788 521.075,742.313 520.777,752.561C520.402,765.424 515.849,768.12 510.564,768.12C505.368,768.12 499.515,765.522 499.515,753.708C499.515,743.576 499.437,741.319 497.973,740.332C483.245,730.407 487.832,709.801 495.891,704.14C497.416,703.069 496.636,702.121 496.695,700.66C497.097,690.719 497.413,687.058 496.295,687.635C493.507,689.074 485.669,696.062 467.895,716.193C455.177,730.599 433.1,759.989 417.485,781.164C413.114,776.149 404.085,763.685 410.618,736.908C393.656,776.199 369.972,799.396 362.658,801.523L359.14,803.524Z" style="fill:rgb(203,166,247);"/>
            </g>
            <g id="path16996" transform="matrix(0.999882,0,0,1,26.9855,-63.9531)">
                <path d="M365.53,793.065C368.915,776.734 370.524,751.129 368.76,741.684C363.853,715.415 361.541,704.987 358.749,696.535C356.234,688.92 351.553,676.55 348.04,668.233C345.927,663.23 343.143,656.407 341.855,653.072C338.957,645.572 337.676,644.258 326.745,637.577C326.135,637.204 323.981,635.762 321.959,634.372C315.5,629.934 314.775,627.68 330.027,659.473C339.553,679.331 349.682,710.985 350.055,722.061C350.151,724.885 350.468,732.654 350.762,739.325C351.596,758.31 350.533,769.199 348.378,763.752C341.663,746.786 317.779,716.175 294.836,695.134C286.735,687.704 278.098,680.123 274.949,677.677C273.285,676.385 271.522,674.943 271.03,674.472C266.481,670.119 268.308,671.103 266.958,690.382C266.24,700.631 265.957,706.225 266.434,709.546C268.422,710.364 269.774,710.991 271.056,711.817C278.139,716.378 278.132,731.157 267.32,739.52C266.392,740.238 266.077,741.905 265.897,747.097C265.744,751.527 265.65,757.859 265.5,760.555C265.199,765.959 253.446,765.487 253.61,759.849C253.738,755.448 254.023,749.03 254.009,746.307C253.978,740.216 254.067,740.498 250.423,737.746C240.752,730.445 239.953,710.991 251.311,708.696C253.667,708.22 254.726,664.404 252.65,662.923C239.731,653.706 199.095,627.657 178.11,619.476C135.682,602.934 133.285,583.45 170.43,557.047C177.648,551.917 177.794,551.577 175.794,544.555C167.457,515.296 181.417,504.011 253.393,481.828C258.767,480.172 266.5,477.786 270.577,476.527C274.654,475.268 278.848,474.031 279.897,473.777C282.658,473.109 282.742,472.063 280.472,466.594C276.554,457.154 276.118,453.184 276.634,431.607C277.095,412.298 277.095,412.298 271.675,408.696C245.103,391.036 235.477,328.87 256.782,312.524C260.448,309.711 260.614,311.128 254.55,293.507C247.038,271.679 245.255,253.302 249.202,238.39C250.979,231.677 251.025,230.902 249.65,230.902C248.183,230.902 241.787,235.377 236.279,240.259C230.321,245.539 230.194,245.514 230.767,239.184C233.009,214.446 241.51,197.577 258.733,183.687C262.43,180.706 262.354,180.586 254.012,176.224C247.56,172.85 236.591,164.791 236.028,163.011C235.826,162.375 237.409,162.168 242.467,162.168C254.56,162.168 265.129,159.53 278.807,153.096C287.492,149.011 287.516,148.918 281.152,144.074C272.838,137.745 272.329,138.14 288.371,138.464C314,138.981 331.794,134.443 325.258,129.055C319.938,124.67 312.779,113.624 315.893,114.606C325.719,117.704 376.667,123.052 379.573,121.29C380.574,120.683 380.032,118.707 377.333,113.132C374,106.247 373.437,106.701 382.912,108.626C408.459,113.817 420.987,119.155 435.269,130.935C440.692,135.408 441.399,135.47 441.399,131.472C441.399,128.202 439.645,119.524 438.568,117.468C437.435,115.304 438.51,115.458 442.876,118.084C460.084,128.438 470.353,141.591 475.057,159.304C478.154,170.969 485.579,146.236 482.947,133.024C482.176,129.157 483.362,129.935 487.086,135.741C493.824,146.245 496.571,156.578 495.633,167.896C494.724,178.869 494.285,177.633 500.177,180.692C516.266,189.046 526.28,206.907 529.911,228.711C530.704,233.472 529.845,233.311 527.99,230.478C519.941,218.185 509.651,213.812 514.173,223.374C520.705,237.187 524.031,257.852 522.32,274.002C521.392,282.76 520.824,283.432 518.552,278.464C516.163,273.242 515.283,273.862 514.731,281.158C514.481,284.464 513.495,291.63 512.541,297.084C510.203,310.444 510.234,311.527 512.996,312.975C536.233,325.154 524.911,396.51 497.623,409.86C493.806,411.728 493.806,411.728 494.29,430.311C494.829,451.023 494.167,457.817 490.841,465.687C488.053,472.283 488.015,472.202 494.97,474.359C589.068,503.54 606.664,515.801 596.166,544.879C593.832,551.344 593.679,551.073 603.223,557.384C620.705,568.945 627.383,578.165 627.383,590.741C627.383,602.793 621.061,608.417 594.801,619.73C569.527,630.618 560.985,635.559 526.136,659.451C518.039,665.002 518.746,695.338 519.61,708.209C531.041,711.761 531.509,730.657 522.082,737.635C518.892,739.996 518.892,739.996 518.892,749.959C518.892,763.051 516.972,767.513 511.886,766.236C507.53,765.143 506.763,762.887 506.763,751.16C506.763,740.525 506.763,740.525 503.225,737.904C493.524,730.715 495.135,717.172 502.401,711.074C502.697,710.826 504.818,709.301 507.092,708.355C507.39,705.544 507.411,700.381 507.411,691.048C507.411,678.328 507.45,677.986 506.566,671.862C504.215,672.572 499.464,675.898 495.431,679.18C462.668,705.85 440.802,732.9 426.22,758.71C421.015,767.923 421.812,762.57 422.273,742.484C422.687,724.414 423.018,719.979 424.532,710.846C426.508,698.929 430.609,688.13 434.626,678.896C438.653,669.641 442.81,660.451 447.04,651.29C448.784,647.536 466.38,616.254 468.352,612.765C453.308,623.428 452.889,623.993 441.628,628.553C439.073,634.958 437.212,639.817 430.059,654.129C417.032,680.197 410.427,698.523 403.006,728.206C400.469,738.351 397.91,746.641 396.579,749.026C396.04,749.991 394.659,753.206 393.509,756.171C387.099,772.709 363.225,804.19 365.53,793.065L365.53,793.065ZM379.37,743.582C379.762,741.127 380.521,732.948 381.055,725.407C383.147,695.88 384.213,690.4 385.032,704.958C386.161,725.037 386.906,733.956 387.506,734.556C387.868,734.918 388.164,735.067 388.164,734.886C388.164,726.849 399.255,681.075 405.62,662.843C407.108,658.58 408.961,652.212 409.738,648.692C412.617,635.641 413.018,638.769 411.082,659.162C409.205,678.94 409.029,678.775 414.846,662.692C418.889,651.512 427.851,641.29 430.723,629.195C433.685,616.72 433.626,606.504 434.162,592.527C434.65,579.821 433.391,565.595 433.85,560.733C436.207,565.968 438.482,571.023 441.679,587.717C447.946,578.389 450.482,571.824 451.249,568.712C459.306,536.037 451.662,529.008 439.834,500.638C438.057,496.376 434.539,490.925 432.6,486.293C421.65,460.127 413.421,454.536 386.429,454.916C361.055,455.274 352.235,460.606 344.006,480.565C342.631,483.9 338.838,491.936 335.577,498.422C323.369,522.708 319.823,540.389 323.751,557.384C326.052,567.338 326.461,567.302 327.478,557.047C329.472,536.948 336.027,513.28 342.82,501.654C345.316,497.382 346.915,495.836 346.097,498.485C338.884,521.853 335.133,559.658 338.275,577.319C338.632,579.327 339.57,584.911 340.36,589.729C343.842,610.965 352.657,642.448 350.643,626.454C348.268,607.591 353.517,560.417 357.991,560.417C358.329,560.417 358.378,561.098 358.099,561.933C357,565.218 358.195,590.929 360.58,615.336C362.889,638.953 366.317,664.038 373.333,708.665C374.819,718.115 376.361,730.245 376.761,735.619C377.836,750.088 378.169,751.102 379.37,743.582ZM352.462,517.121C352.506,500.047 357.699,486.105 366.059,480.619C370.879,477.457 370.383,476.623 363.906,476.997C357.579,477.364 357.307,476.925 361.627,473.329C370.369,466.052 402.621,466.072 411.135,473.359C415.096,476.75 414.681,477.233 408.043,476.958C401.332,476.679 401.011,477.142 405.619,480.453C411.755,484.861 415.175,491.501 418.454,505.373C422.163,521.063 421.693,523.013 416.874,511.922C408.456,492.548 400.698,483.803 403.857,497.249C405.755,505.33 407.062,520.819 405.906,521.533C405.546,521.756 404.587,519.047 403.735,515.399C397.325,487.97 390.854,475.794 389.955,489.471C388.316,514.403 387.478,520.531 386.542,514.426C386.358,513.221 385.29,506.626 384.169,499.77C383.048,492.913 382.048,486.394 381.947,485.282C381.335,478.566 369.786,503.721 367.64,516.444C367.375,518.017 366.832,519.506 366.433,519.752C364.446,520.98 366.899,500.499 369.855,491.178C370.86,488.01 369.42,488.309 366.048,491.967C361.521,496.879 357.25,506.672 354.491,518.469C353.326,523.448 352.448,522.864 352.462,517.121L352.462,517.121ZM340.995,726.427C340.995,724.307 335.289,704.721 332.091,695.861C317.883,656.504 279.731,606.191 234.526,567.195C194.717,532.854 194.78,528.66 235.339,513.33C255.974,505.531 290.558,493.031 291.502,493.031C293.572,493.031 293.571,488.831 291.5,486.759C288.695,483.955 216.569,508.236 199.727,517.655C184.051,526.421 182.913,536.449 195.251,557.106C197.113,560.224 204.585,574.533 207.032,578.601C191.628,569.162 184.843,563.345 183.906,563.244C179.806,566.532 175.065,570.761 171.318,574.555C164.158,581.804 160.301,589.209 163.819,593.681C165.231,595.475 172.217,599.042 191.062,607.587C196.621,610.108 208.144,615.795 216.668,620.227C230.589,627.463 236.16,630.447 249.687,637.914C283.608,656.638 321.583,693.519 338.322,723.995C339.708,726.518 340.994,727.689 340.994,726.427L340.995,726.427ZM443.55,710.421C473.262,669.142 508.143,644.214 584.364,606.623C601.803,598.022 607.527,594.888 609.128,593.065C615.187,586.164 607.376,575.079 590.423,566.518C587.131,564.856 587.274,564.773 573.475,576.23C565.773,582.624 565.406,582.897 565.022,582.513C564.839,582.329 568.525,574.326 573.214,564.728C589.955,530.454 589.703,527.253 569.431,516.723C552.41,507.881 485.693,484.925 481.591,486.499C480.691,486.844 478.704,491.488 479.236,492C479.475,492.231 489.989,496.137 513.165,504.605C559.301,521.464 564.077,523.611 566.415,528.537C569.892,535.864 567.442,539.18 532.66,574.231C481.388,625.899 448.103,668.215 441.383,687.275C438.488,695.488 431.869,714.381 430.911,732.165C430.838,733.517 438.997,716.748 443.55,710.421ZM485.283,611.966C508.232,584.267 523.778,557.852 523.579,546.896C523.552,545.41 523.409,545.493 522.063,547.775C519.566,552.011 518.892,551.127 518.892,543.614C518.892,531.536 516.719,529.477 496.655,522.541C493.505,521.453 489.487,519.807 487.726,518.884C483.55,516.694 483.636,517.291 487.895,520.051C489.748,521.251 491.264,522.449 491.264,522.713C491.264,522.976 493.993,525.371 497.328,528.034C507.764,536.367 508.241,537.546 506.141,549.825C504.407,559.958 501.754,568.456 497.362,577.937C495.559,581.828 492.869,587.741 491.382,591.077C489.896,594.413 485.627,602.903 481.894,609.945C472.624,627.436 472.518,627.373 485.283,611.966ZM295.025,616.825C293.696,614.21 288.434,602.307 288.434,601.916C288.434,601.763 286.878,598.352 284.976,594.336C269.702,562.081 264.985,546.68 267.551,537.441C268.267,534.865 272.174,530.873 282.241,522.434C289.766,516.126 288.867,515.584 278.704,520.302C276.828,521.173 273.019,522.836 270.24,523.997C253.821,530.859 253.397,531.307 252.875,542.325C252.496,550.323 251.995,551.094 249.984,546.771C248.652,543.907 248.652,543.907 249.005,546.743C249.963,554.453 255.507,567.146 262.023,576.551C263.707,578.981 266.441,582.94 268.099,585.349C276.085,596.952 294.989,620.124 295.804,619.309C295.98,619.133 295.629,618.015 295.025,616.825L295.025,616.825ZM442.326,616.308C460.775,603.305 473.12,593.02 483.262,575.895C487.219,569.214 489.3,561.482 490.19,552.236C483.599,548.817 479.452,546.003 474.07,534.888C471.605,529.796 470.129,517.644 470.77,512.704C466.138,517.255 464.752,520.122 460.867,522.195C463.251,530.334 463.991,532.219 464.305,538.954C464.941,552.641 462.115,561.227 453.205,582.596C450.469,589.156 443.265,596.485 443.265,596.485C443.265,596.485 443.998,604.666 442.326,616.308ZM330.638,612.472C328.233,598.019 327.384,594.298 326.144,592.762C315,578.954 309.539,562.531 308.992,541.179C308.719,530.528 308.673,530.246 305.917,522.48C302.644,513.257 301.805,512.631 302.349,519.817C303.818,539.232 299.295,554.502 291.104,557.778C285.24,560.124 285.437,563.244 292.31,576.926C301.034,594.292 332.464,623.441 330.638,612.472ZM453.108,487.537C450.66,459.691 443.211,448.565 423.241,435.086C415.307,429.731 393.288,426.088 391.83,429.89C390.437,433.519 403.489,445.354 415.718,451.551C421.973,454.721 422.056,453.717 416.077,447.202C413.639,444.546 411.815,442.202 412.024,441.993C415.452,438.565 433.652,467.6 438.281,480.117C438.839,471.157 438.644,469.677 434.369,452.217C440.561,458.944 445.5,482.727 447.279,488.852C449.286,495.762 447.585,496.433 452.74,505.658C453.954,498.674 453.661,493.82 453.108,487.537ZM323.657,497.58C324.206,495.263 325.758,488.668 327.104,482.923C330.503,468.425 335.677,455.972 339.984,451.926C341.738,450.278 341.738,450.278 339.604,454.839C335.725,463.128 335.69,466.842 339.547,460.855C341.963,457.104 349.073,450.048 354.809,445.707C363.3,439.282 364.754,439.788 357.954,446.801C351.134,453.835 351.515,454.467 359.989,450.181C371.127,444.547 382.544,433.574 381.122,429.868C380.264,427.633 361.833,429.259 356.029,432.082C332.288,443.631 321.46,462.349 321.455,491.852C321.453,502.58 322.083,504.219 323.657,497.58L323.657,497.58ZM469.013,480.23C472.597,473.081 476.439,456.793 476.439,448.749C476.439,443.498 477.958,444.407 478.736,450.123C479.448,455.362 480.413,456.019 480.641,451.421C480.988,444.431 480.794,404.76 480.413,404.758C479.262,404.753 472.192,414.32 471.007,417.488C468.348,424.595 467.029,435.551 466.3,456.584C465.92,467.55 465.335,478.038 465,479.891C463.464,488.381 464.868,488.499 469.013,480.23ZM306.325,477.701C306.111,473.346 305.628,462.082 305.252,452.669C304.408,431.522 302.492,421.45 297.679,412.842C296.154,410.116 292.419,405.264 292.095,405.588C291.48,406.202 290.455,437.68 290.86,443.503C291.348,450.525 291.454,450.532 293.444,443.671C295.378,437.004 296.295,438.616 296.321,448.725C296.352,461.241 299.34,473.987 304.141,482.081C306.868,486.679 306.776,486.862 306.325,477.701ZM452.323,440.201C451.939,426.23 453.09,419.77 454.45,428.273C456.887,443.51 458.376,445.516 459.881,435.585C462.13,420.749 466.387,410.637 475.591,398.272C488.076,381.499 489.66,377.155 490.972,356.092C491.756,343.506 490.433,341.021 488,350.511C481.855,374.483 472.092,381.404 444.431,381.398C415.933,381.392 408.638,375.554 398.356,344.527C392.183,325.898 380.693,324.449 375.703,341.67C366.515,373.375 357.223,381.401 329.837,381.285C301.099,381.164 292.846,375.585 285.057,351.016C281.401,339.482 281.017,339.74 281.045,353.712C281.083,372.584 282.816,378.533 291.681,390.233C300.607,402.012 302.736,405.179 305.297,410.484C309.582,419.363 312.3,428.677 313.701,439.291C314.471,445.13 316.417,440.915 318.24,429.461C319.176,423.576 319.721,423.095 320.844,427.162C322.35,432.611 321.719,444.914 319.659,450.283C318.762,452.619 320.798,450.878 324.185,446.413C334.504,432.806 344.812,425.676 362.928,419.615C374.226,415.835 374.147,415.912 369.97,412.732C360.809,405.755 367.475,400.95 378.334,406.703C385.294,410.391 387.717,410.391 395.049,406.705C406.24,401.078 413.047,405.221 404.157,412.248C399.382,416.022 399.319,415.945 410.432,419.91C429.524,426.721 440.347,434.726 450.754,449.737C451.589,450.941 452.356,451.927 452.459,451.927C452.562,451.927 452.5,446.651 452.323,440.202L452.323,440.201ZM277.652,399.088C277.652,395.885 276.477,391.877 272.601,381.861C270.51,376.458 270.005,374.074 269.316,366.362C268.094,352.681 264.678,346.917 261.576,353.303C259.15,358.296 258.556,356.476 258.975,345.337C259.549,330.127 262.353,329.465 269.302,342.902C271.114,346.407 271.796,345.178 271.286,339.326C270.294,327.964 266.548,321.872 260.551,321.872C252.096,321.872 250.948,353.507 258.574,376.33C263.842,392.094 277.652,408.568 277.652,399.088ZM500.006,398.116C514.689,382.563 522.909,340.805 514.492,324.529C510.217,316.262 501.642,325.992 500.858,339.997C500.461,347.11 500.877,347.422 503.824,342.221C510.581,330.301 510.998,330.351 511.371,343.111C511.821,358.53 510.572,363.56 508.446,354.885C506.763,348.018 506.051,348.068 503.546,355.228C502.492,358.242 502.063,361.414 501.86,367.694C501.564,376.878 500.34,381.043 496.875,384.662C495.404,386.198 495.051,387.405 494.517,392.73C493.46,403.273 494.331,404.128 500.006,398.116ZM340.595,372.781C354.92,370.04 361.938,361.346 365.6,341.802C367.283,332.82 366.255,330.766 359.502,329.62C358.033,329.371 356.3,329.021 355.651,328.843C353.866,328.354 354.222,329.62 356.83,333.036C362.598,340.592 355.002,339.171 348.134,331.409C346.302,329.339 345.955,329.527 344.006,333.648C339.477,343.22 328.01,343.305 323.222,333.803C321.012,329.417 320.559,329.289 315.528,331.632C312.353,333.11 311.984,333.497 312.159,335.163C312.353,337.004 312.303,337.031 308.986,336.861C300.602,336.43 299.96,335.858 303.308,331.796C308.187,325.877 316.964,323.442 336.45,322.603C352.331,321.92 352.477,321.183 337.2,318.807C302.707,313.443 292.06,316.855 292.243,333.215C292.602,365.169 309.237,378.781 340.595,372.781ZM459.893,372.063C474.255,368.083 480.488,356.397 480.734,332.991C480.891,318.147 479.141,316.893 458.919,317.357C433.728,317.935 412.367,322.372 434.323,322.465C453.083,322.545 462.598,325.085 468.493,331.584C471.583,334.991 471.65,335.857 468.859,336.345C463.829,337.224 459.919,337.079 460.179,336.023C460.782,333.575 460.454,332.917 458.04,331.738C453.52,329.53 451.492,329.855 450.398,332.961C446.747,343.333 431.989,343.272 428.556,332.871C427.575,329.899 426.973,330.025 422.018,334.238C417.41,338.156 414.679,339.851 414.027,339.199C413.483,338.655 416.582,333.368 418.418,331.706C420.559,329.769 420.164,329.284 416.445,329.284C405.025,329.284 404.074,339.088 413.588,358.743C419.902,371.788 440.01,377.572 459.893,372.063L459.893,372.063ZM398.43,316.872C398.703,316.472 398.93,314.704 398.936,312.943C398.946,309.743 398.946,309.743 401.765,309.743C406.492,309.743 431.564,303.801 440.619,300.535C459.3,293.797 460.79,293.862 473.049,301.961C478.624,305.644 488.569,307.929 488.569,305.527C488.569,305.062 486.5,301.347 483.972,297.272C479.59,290.208 477.473,285.717 475.717,279.756C475.255,278.187 474.81,270.722 474.653,261.899C474.319,243.106 474.288,242.917 470.991,239.341C461.202,228.721 435.046,233.217 398.186,251.856C385.701,258.17 386.954,258.04 380.333,253.708C364.719,243.492 336.552,234.013 321.79,234.007C305.076,234.001 298.232,241.572 299.012,259.203C299.806,277.18 297.97,284.999 290.096,297.157C282.853,308.342 287.167,310.448 299.719,301.855C310.823,294.253 313.6,294.008 329.135,299.259C345.669,304.849 368.823,310.275 372.77,309.486C374.687,309.102 374.687,309.102 374.687,313.016C374.687,315.169 374.821,317.064 374.984,317.227C375.669,317.912 397.953,317.574 398.43,316.872ZM500.159,291.495C505.103,264.105 501.506,248.945 488.427,242.05C484.813,240.145 484.749,240.974 488.133,245.815C497.72,259.53 499.79,270.083 491.09,260.888C487.934,257.552 485.183,254.983 484.976,255.179C484.295,255.824 490.311,281.011 492.213,285.484C493.238,287.893 494.862,291.766 495.822,294.092C498.091,299.585 498.773,299.176 500.159,291.495ZM363.154,218.7C340.587,175.325 269.683,172.836 246.193,214.595C243.067,220.153 243.239,220.156 250.363,214.667C275.004,195.683 306.351,195.945 332.188,215.35C339.134,220.567 338.059,217.818 329.959,209.654C323.964,203.611 317.264,199.292 308.981,196.129C303.062,193.87 302.524,192.949 307.47,193.546C329.429,196.197 352.075,207.866 362.959,222.14C366.525,226.815 366.608,225.341 363.154,218.7L363.154,218.7ZM432.38,207.241C437.241,190.682 435.757,172.017 428.237,155.135C424.694,147.183 424.773,146.724 428.822,151.695C435.704,160.143 441.183,170.94 443.884,181.373C445.801,188.779 445.957,181.499 444.07,172.676C439.329,150.499 424.623,134.727 398.816,124.14C390,120.524 389.109,121.041 395.745,125.923C403.886,131.911 413.733,143.319 417.931,151.623C420.614,156.932 420,157.042 414.808,152.185C400.924,139.197 375.768,129.384 353.124,128.123C345.775,127.713 346.333,128.344 355.819,131.175C364.209,133.678 376.087,139.735 383.297,145.188C386.611,147.693 385.627,147.679 377.611,145.102C369.732,142.57 360.972,140.918 351.608,140.199C344.38,139.643 343.932,140.534 350.597,142.207C375.788,148.529 398.466,166.055 408.454,186.917C413.38,197.208 413.887,196.287 411.322,181.71C410.275,175.761 406.466,165.218 404.202,162C403.484,160.981 403.228,160.147 403.632,160.147C404.035,160.147 404.711,160.905 405.133,161.831C405.556,162.758 406.342,163.516 406.881,163.516C409.34,163.516 419.069,176.723 422.067,184.131C427.025,196.381 428.466,203.063 428.589,214.368C428.612,216.478 430.969,212.047 432.38,207.241L432.38,207.241ZM381.416,207.822C381.399,206.435 380.278,205.092 379.526,205.557C379.14,205.795 378.633,205.683 378.4,205.306C378.168,204.929 378.474,204.621 379.081,204.621C381.907,204.621 376.813,193.413 370.272,185.238C353.029,163.686 321.352,153.63 291.803,160.327C283.899,162.118 267.154,167.051 266.393,167.812C265.135,169.07 277.933,171.247 290.455,171.905C320.269,173.471 348.232,184.235 364.411,200.372C368.581,204.531 371.992,207.552 371.992,207.086C371.992,206.62 371.712,205.95 371.37,205.598C371.028,205.246 370.908,204.145 371.103,203.15C371.509,201.08 373.34,199.965 373.34,201.787C373.34,202.429 374.022,203.253 374.856,203.619C375.69,203.985 376.664,204.949 377.02,205.761C377.95,207.88 381.436,209.514 381.416,207.822ZM393.637,198.96C392.51,195.138 390.531,189.693 389.241,186.861C387.95,184.028 387.141,181.71 387.443,181.71C389.447,181.71 398.56,194.455 400.99,200.656C402.774,205.209 403.992,206.568 403.335,203.273C395.601,164.501 377.681,151.669 327.518,148.98C316.933,148.413 317.298,149.104 329.54,152.81C359.845,161.985 381.9,179.657 392.99,203.651C395.921,209.993 396.23,207.752 393.637,198.96Z" style="fill:rgb(41,44,60);"/>
            </g>
        </g>
    </g>
</svg>
